<svg version="1.2" xmlns="http://www.w3.org/2000/svg" viewBox="0 0 1024 1024" width="512" height="512">
	<title>NEW-LOGO-2023-OK</title>
	<defs>
		<linearGradient id="g1" x2="1" gradientUnits="userSpaceOnUse" gradientTransform="matrix(833.063,-724.322,605.153,696.002,28.605,818.793)">
			<stop offset="0" stop-color="#05c2ba"/>
			<stop offset="1" stop-color="#05ffba"/>
		</linearGradient>
		<linearGradient id="g2" x2="1" gradientUnits="userSpaceOnUse" gradientTransform="matrix(733.158,-637.458,577.86,664.613,-96.746,465.035)">
			<stop offset="0" stop-color="#05c2ba"/>
			<stop offset="1" stop-color="#05ffba"/>
		</linearGradient>
	</defs>
	<style>
		tspan { white-space:pre } 
		.s0 { fill: #ffffff } 
		.s1 { fill: url(#g1) } 
		.s2 { fill: url(#g2) } 
	</style>
	<g id="LOGO">
		<g id="COLOR BIG-ok pontos baixos">
			<g id="NAME 00000109741186138204881440000018079265092995222931 ">
				<path id="&lt;Compound Path&gt;" fill-rule="evenodd" class="s0" d="m27 862.6l12.9-71.1c0.4-2.5 2.8-4.5 5.3-4.5h57c11.7 0 19.5 9.4 17.4 20.9l-3.2 18.2c-1.5 7.9-7.2 14.7-14.5 18.3-0.5 0.2-0.8 0.8-0.5 1.2l9.4 16.4c1.2 2.2-0.3 4.8-2.8 4.8-7.9 0-12.8 0.3-16 0.2-5.5 0.1-7.3-0.1-8.3-2.1l-8.6-16.8c-0.3-0.7-1.1-1.2-2-1.2l-18.3 0.1c-0.4 0-0.9 0.4-1 0.9l-2.7 14.7c-0.4 2.5-2.8 4.5-5.3 4.5h-15.1c-2.5 0-4.1-2-3.7-4.5zm30.7-36.6c0 0.5 0.3 0.9 0.8 0.9h29.5c2.2 0 4.3-1.8 4.7-3.9l2.2-12c0.4-2.2-1.1-4-3.3-4h-29.5c-0.5 0-1 0.4-1.1 0.9z"/>
				<path id="&lt;Compound Path&gt;" fill-rule="evenodd" class="s0" d="m116.2 861.5l46.2-70.2c2.4-3.1 5.4-3.9 9.5-4.1v0.1q0 0 0 0v-0.1c1.2 0 2.4 0 3.7 0 0.2 0 0.4 0 0.6 0 0.5 0 0.9 0 1.4 0 1.6 0 3.5 0.1 5.6 0.1 0 0 4-0.2 5.4 4l22.9 70.2c0.4 1.2 0.1 2.6-0.6 3.7-0.8 1.1-2.1 1.8-3.2 1.8h-18.3c-1.2 0-2.3-0.7-2.7-2l-2-6.6h-38.6l-1.6 2.4-3 4.2c-0.8 1.3-2.3 2.1-3.7 2.1h-19.3c-1.3 0-2.4-0.8-2.9-1.9-0.5-1.1-0.3-2.5 0.6-3.7zm42.4-22.2h20.2l-6.5-20.8z"/>
				<path id="&lt;Compound Path&gt;" class="s0" d="m218.4 862.6l12.9-71.1c0.4-2.4 2.8-4.4 5.3-4.4h67.2c1.5 0 2.5 1.2 2.2 2.6l-2.7 15.1c-0.2 1.5-1.7 2.7-3.2 2.7h-46.7c-0.5 0-1 0.4-1 0.9l-1.5 8.2c-0.1 0.5 0.2 0.9 0.7 0.9h37.6c1.5 0 2.5 1.2 2.2 2.7l-2.5 13.8c-0.2 1.5-1.7 2.7-3.2 2.7h-37.5c-0.5 0-1 0.4-1.1 0.8l-4.5 25.1c-0.5 2.5-2.9 4.5-5.4 4.5h-15c-2.5 0-4.2-2-3.8-4.5z"/>
				<path id="&lt;Compound Path&gt;" fill-rule="evenodd" class="s0" d="m286.7 861.5l46.2-70.2c2.4-3.1 5.4-3.9 9.5-4.1v0.1q0 0 0.1 0v-0.1c1.1 0 2.3 0 3.6 0 0.2 0 0.4 0 0.6 0 0.5 0 0.9 0 1.4 0 1.6 0 3.5 0.1 5.6 0.1 0 0 4-0.2 5.4 4l22.9 70.2c0.4 1.2 0.1 2.6-0.6 3.7-0.8 1.1-2 1.8-3.2 1.8h-18.3c-1.2 0-2.3-0.7-2.7-2l-2-6.6h-38.6l-1.6 2.4-3 4.2c-0.8 1.3-2.3 2.1-3.7 2.1h-19.3c-1.3 0-2.4-0.8-2.9-1.9-0.5-1.1-0.3-2.5 0.6-3.7zm42.4-22.2h20.2l-6.5-20.8z"/>
				<path id="&lt;Compound Path&gt;" class="s0" d="m388.9 862.6l12.9-71.2c0.4-2.4 2.8-4.4 5.3-4.4h67.4c1.5 0 2.5 1.2 2.2 2.6l-2.7 15.1c-0.3 1.5-1.7 2.7-3.2 2.7h-46.8c-0.5 0-1 0.4-1.1 0.9l-1.5 8.2c-0.1 0.5 0.3 0.9 0.8 0.9h37.6c1.5 0 2.5 1.2 2.2 2.7l-2.5 13.8c-0.2 1.5-1.7 2.7-3.2 2.7h-37.6c-0.5 0-1 0.4-1.1 0.9l-1.4 7.7c0 0.5 0.3 0.9 0.8 0.9h46.8c1.5 0 2.5 1.2 2.2 2.6l-2.8 15.7c-0.2 1.4-1.7 2.7-3.2 2.7h-67.3c-2.5 0-4.2-2-3.8-4.5z"/>
				<path id="&lt;Compound Path&gt;" class="s0" d="m492.1 787.1h15.1c2.5 0 4.2 2 3.7 4.4l-9.4 51.9c-0.2 1.5 0.8 2.7 2.3 2.7h36.7c2.5 0 4.2 2 3.7 4.4l-2.2 12.1c-0.4 2.5-2.8 4.5-5.3 4.5h-59c-2.5 0-4.2-2-3.7-4.5l12.8-71.1c0.4-2.4 2.8-4.4 5.3-4.4z"/>
				<path id="&lt;Compound Path&gt;" class="s0" d="m695.6 790.7c-21.4 39.6-16 29.5-39.4 73.3-1 1.8-2.9 3.1-4.8 3.1h-27.3c-1.9 0-3.4-1.3-3.7-3.1-7.9-45.6-5.8-34-12.9-73.3-0.3-1.7 1.4-3.5 3.2-3.5h18.4c1.9 0 3.4 1.2 3.7 2.9l8.7 49.7c0.2 1.1 1.6 1.3 2.1 0.4l26.9-50.1c1-1.7 2.9-2.9 4.8-2.9h18.3c1.9 0 2.9 1.8 2 3.5z"/>
				<path id="&lt;Compound Path&gt;" class="s0" d="m722.9 787.1c2.4 0 4.1 2 3.7 4.4l-12.9 71.1c-0.4 2.5-2.8 4.5-5.3 4.5h-15.1c-2.5 0-4.2-2-3.7-4.5l12.8-71.1c0.5-2.4 2.9-4.4 5.4-4.4z"/>
				<path id="&lt;Compound Path&gt;" fill-rule="evenodd" class="s0" d="m815.7 826.1c-2 11.5-13.2 20.8-25 20.8l-36.5 0.1c-0.5 0-1 0.4-1 0.9l-2.7 14.7c-0.5 2.5-2.8 4.5-5.3 4.5h-15.1c-2.5 0-4.2-2-3.7-4.5l12.8-71.1c0.5-2.5 2.9-4.5 5.4-4.5h57c11.7 0 19.5 9.4 17.4 20.9zm-24.8-19h-29.5c-0.5 0-0.9 0.4-1 0.9l-3.3 18.1c-0.1 0.5 0.2 0.9 0.7 0.9h29.5c2.3 0 4.4-1.8 4.8-4l2.1-11.9c0.4-2.2-1.1-4-3.3-4z"/>
				<path id="&lt;Compound Path&gt;" class="s0" d="m819 862.6l12.8-71.2c0.5-2.4 2.9-4.4 5.4-4.4h67.3c1.5 0 2.5 1.2 2.2 2.6l-2.7 15.1c-0.3 1.5-1.7 2.7-3.2 2.7h-46.8c-0.5 0-1 0.4-1.1 0.9l-1.4 8.2c-0.1 0.5 0.2 0.9 0.7 0.9h37.7c1.4 0 2.4 1.2 2.2 2.7l-2.5 13.8c-0.3 1.5-1.7 2.7-3.2 2.7h-37.7c-0.5 0-1 0.4-1 0.9l-1.4 7.7c-0.1 0.5 0.2 0.9 0.7 0.9h46.8c1.5 0 2.5 1.2 2.3 2.6l-2.9 15.7c-0.2 1.4-1.7 2.7-3.2 2.7h-67.3c-2.5 0-4.2-2-3.7-4.5z"/>
				<path id="&lt;Compound Path&gt;" fill-rule="evenodd" class="s0" d="m904.1 862.6l12.9-71.1c0.4-2.5 2.8-4.5 5.3-4.5h57c11.7 0 19.5 9.4 17.4 20.9l-3.3 18.2c-1.4 7.9-7.1 14.7-14.4 18.3-0.5 0.2-0.8 0.8-0.5 1.2l9.4 16.4c1.2 2.2-0.3 4.8-2.9 4.8-7.8 0-12.7 0.3-15.9 0.2-5.5 0.1-7.3-0.1-8.3-2.1l-8.6-16.8c-0.4-0.7-1.1-1.2-2-1.2l-18.3 0.1c-0.5 0-0.9 0.4-1 0.9l-2.7 14.7c-0.4 2.5-2.8 4.5-5.3 4.5h-15.1c-2.5 0-4.2-2-3.7-4.5zm30.7-36.6c-0.1 0.5 0.3 0.9 0.8 0.9h29.5c2.2 0 4.3-1.8 4.7-3.9l2.2-12c0.4-2.2-1.1-4-3.3-4h-29.5c-0.5 0-1 0.4-1.1 0.9z"/>
			</g>
			<g id="LOGO 00000110471088804750705640000006626335348054924695 ">
				<path id="&lt;Path&gt;" class="s1" d="m654.1 275.4c22.8-1 34.7-3 55.2-5.8-38.1-21.4-42.3-20.9-55.2 5.8z"/>
				<path id="&lt;Path&gt;" class="s2" d="m725.3 156.9h-422.2c-18.4 0-36.1 14.8-39.4 32.9l-95.2 526.9c-3.3 18.2 9.1 32.8 27.5 32.8v0.1l111.7-0.1h24.2c-0.2-0.1-64.5-73.4-40.2-221.2 19.8-121.2 108.6-195.7 224.8-236 47.5-16.5 100.2-18.7 140.4-54.5 8.6-7.7 19.6-3.6 29.9 0.3 22.7 8.6 45.3 17.8 68.8 23.6 45.8 9.5 48.8 6.4 24.1 49.4-0.6 1.4-2 2.5-3 3.7-16.8-20.1-17.8-22.4-43.9-9.6-33.9 16.7-51.1 30-146.6 36.3-5.4 0.3 8.3 26.8 18.2 38 17.7 19.8 46.3 40.1 51.7 44.1 6.5 4.9 26.5 19 26.5 19-56.8-3.9-113.4-35-138.8-76.5-10.2-16.6-19.7-17-35.5-10.8-66.2 25.7-112.3 103.5-106.9 177.4 5 67.1 27.5 106.9 64.6 141.9 26 27 87.9 74.9 190.1 74.9 23.7 0 58.4 0 111.8 0 18.7 0 30.2-21.1 21-37.4l-69.6-121.2c-1.8-3.2 0.2-7.5 4.1-9.4 53.7-26.1 96.2-76.7 106.8-135.3l24.3-134.7c15.5-85.4-42.4-154.6-129.2-154.6z"/>
			</g>
		</g>
	</g>
</svg>